<svg width="512" height="512" viewBox="0 0 512 512" fill="none" xmlns="http://www.w3.org/2000/svg">
<g clip-path="url(#clip0_2111_3)">
<rect width="512" height="512" rx="100" fill="#D58777"/>
<path d="M389.932 184.432C366.501 161 328.788 161 253.364 161C177.939 161 140.227 161 116.795 184.432C104.676 196.551 98.8246 212.492 96 235.496C104.491 226.045 114.693 218.172 126.149 212.335C138.652 205.964 152.041 203.381 166.866 202.17C181.188 201 198.81 201 220.358 201H286.369C307.917 201 325.54 201 339.861 202.17C354.687 203.381 368.076 205.964 380.578 212.335C392.034 218.172 402.237 226.045 410.727 235.496C407.903 212.492 402.052 196.551 389.932 184.432Z" fill="white" fill-opacity="0.75"/>
<path fill-rule="evenodd" clip-rule="evenodd" d="M101.72 214.681C93 231.794 93 254.195 93 299C93 343.805 93 366.206 101.72 383.32C109.389 398.373 121.628 410.611 136.681 418.28C153.794 427 176.196 427 221 427H285C329.805 427 352.206 427 369.32 418.28C384.373 410.611 396.611 398.373 404.28 383.32C413 366.206 413 343.805 413 299C413 254.195 413 231.794 404.28 214.681C396.611 199.628 384.373 187.389 369.32 179.72C352.206 171 329.805 171 285 171H221C176.196 171 153.794 171 136.681 179.72C121.628 187.389 109.389 199.628 101.72 214.681ZM301.952 274.992C306.365 270.048 305.936 262.462 300.992 258.05C296.048 253.635 288.462 254.064 284.05 259.008L235.858 312.982L221.952 297.408C217.537 292.464 209.952 292.035 205.008 296.45C200.064 300.862 199.635 308.448 204.049 313.392L226.906 338.992C229.182 341.542 232.438 343 235.858 343C239.275 343 242.531 341.542 244.808 338.992L301.952 274.992Z" fill="#FFF7EA"/>
<path d="M389.932 120.432C366.501 97 328.788 97 253.364 97C177.939 97 140.227 97 116.795 120.432C104.676 132.551 98.8246 148.492 96 171.496C104.491 162.045 114.693 154.172 126.149 148.335C138.652 141.964 152.041 139.381 166.866 138.17C181.188 137 198.81 137 220.358 137H286.369C307.917 137 325.54 137 339.861 138.17C354.687 139.381 368.076 141.964 380.578 148.335C392.034 154.172 402.237 162.045 410.727 171.496C407.903 148.492 402.052 132.551 389.932 120.432Z" fill="white" fill-opacity="0.75"/>
</g>
<defs>
<clipPath id="clip0_2111_3">
<rect width="512" height="512" rx="100" fill="white"/>
</clipPath>
</defs>
</svg>
