<svg width="512" height="512" viewBox="0 0 512 512" fill="none" xmlns="http://www.w3.org/2000/svg">
<g clip-path="url(#clip0_2102_3)">
<rect width="512" height="512" rx="100" fill="#003558"/>
<path d="M374.156 174.832L326.519 222.469L326.644 222.886L362.82 356.044C363.439 358.954 363.364 361.968 362.6 364.843C361.836 367.718 360.405 370.372 358.423 372.59L346.482 384.531C345.71 385.432 344.723 386.125 343.613 386.544C342.502 386.964 341.304 387.097 340.128 386.93C338.953 386.764 337.838 386.305 336.887 385.594C335.936 384.883 335.18 383.944 334.688 382.864L285.758 294.3L270.233 278.754L229.181 319.806C224.476 324.005 219.217 327.538 213.552 330.309L222.721 360.462C223.417 363.337 223.403 366.337 222.68 369.205C221.958 372.073 220.549 374.723 218.574 376.925L214.927 380.592C213.065 382.44 210.549 383.477 207.925 383.477C205.302 383.477 202.786 382.44 200.924 380.592L179.251 358.941L178.876 358.524L162.455 342.145L162.039 341.728L140.408 320.077C138.56 318.215 137.523 315.698 137.523 313.075C137.523 310.452 138.56 307.935 140.408 306.073L144.075 302.406C146.281 300.438 148.932 299.037 151.8 298.322C154.668 297.607 157.667 297.599 160.538 298.301L190.692 307.428C193.465 301.764 196.998 296.506 201.195 291.799L242.247 250.747L226.701 235.243L138.136 186.314C137.056 185.822 136.117 185.066 135.406 184.115C134.695 183.164 134.236 182.049 134.07 180.874C133.903 179.698 134.036 178.5 134.456 177.389C134.875 176.279 135.568 175.292 136.469 174.519L148.41 162.579C150.629 160.598 153.283 159.168 156.158 158.404C159.032 157.641 162.046 157.564 164.956 158.182L298.116 194.358L298.532 194.483L346.17 146.846C353.88 139.094 379.95 125.59 387.702 133.301C395.412 141.053 381.888 167.101 374.156 174.832Z" fill="#BAE6FD"/>
<path d="M368.156 171.832L320.519 219.469L320.644 219.886L356.82 353.044C357.439 355.954 357.364 358.968 356.6 361.843C355.836 364.718 354.405 367.372 352.423 369.59L340.482 381.531C339.71 382.432 338.723 383.125 337.613 383.544C336.502 383.964 335.304 384.097 334.128 383.93C332.953 383.764 331.838 383.305 330.887 382.594C329.936 381.883 329.18 380.944 328.688 379.864L279.758 291.3L264.233 275.754L223.181 316.806C218.476 321.005 213.217 324.538 207.552 327.309L216.721 357.462C217.417 360.337 217.403 363.337 216.68 366.205C215.958 369.073 214.549 371.723 212.574 373.925L208.927 377.592C207.065 379.44 204.549 380.477 201.925 380.477C199.302 380.477 196.786 379.44 194.924 377.592L173.251 355.941L172.876 355.524L156.455 339.145L156.039 338.728L134.408 317.077C132.56 315.215 131.523 312.698 131.523 310.075C131.523 307.452 132.56 304.935 134.408 303.073L138.075 299.406C140.281 297.438 142.932 296.037 145.8 295.322C148.668 294.607 151.667 294.599 154.538 295.301L184.692 304.428C187.465 298.764 190.998 293.506 195.195 288.799L236.247 247.747L220.701 232.243L132.136 183.314C131.056 182.822 130.117 182.066 129.406 181.115C128.695 180.164 128.236 179.049 128.07 177.874C127.903 176.698 128.036 175.5 128.456 174.389C128.875 173.279 129.568 172.292 130.469 171.519L142.41 159.579C144.629 157.598 147.283 156.168 150.158 155.404C153.032 154.641 156.046 154.564 158.956 155.182L292.116 191.358L292.532 191.483L340.17 143.846C347.88 136.094 373.95 122.59 381.702 130.301C389.412 138.053 375.888 164.101 368.156 171.832Z" fill="white"/>
</g>
<defs>
<clipPath id="clip0_2102_3">
<rect width="512" height="512" rx="100" fill="white"/>
</clipPath>
</defs>
</svg>
