<svg width="512" height="512" viewBox="0 0 512 512" fill="none" xmlns="http://www.w3.org/2000/svg">
<g clip-path="url(#clip0_2127_3)">
<rect width="512" height="512" rx="100" fill="url(#paint0_linear_2127_3)"/>
<g clip-path="url(#clip1_2127_3)">
<path d="M267.993 84.0037H243.993C239.575 84.0037 236.001 87.5895 236.001 92.0078V184C236.001 188.418 239.575 192.004 243.993 192.004H267.993C272.416 192.004 276.003 188.418 276.003 184V92.0078C276.003 87.5895 272.417 84.0037 267.993 84.0037Z" fill="#965353"/>
<path d="M255.994 64C238.357 64 224.002 78.3553 224.002 96.004C224.002 113.653 238.357 128.008 255.994 128.008C273.648 128.008 288.003 113.653 288.003 96.004C288.003 78.3553 273.647 64 255.994 64Z" fill="#FFCE54"/>
<path opacity="0.2" d="M255.994 87.9998C255.994 92.4181 252.419 96.0039 248.002 96.0039C243.584 96.0039 239.998 92.4181 239.998 87.9998C239.998 83.5814 243.584 80.0076 248.002 80.0076C252.419 80.0076 255.994 83.5814 255.994 87.9998Z" fill="white"/>
<path d="M276.003 144.007H236.005V160.003H276.003V144.007Z" fill="#7F4545"/>
<path d="M279.999 200.008H231.993C227.575 200.008 224.001 203.582 224.001 208V376.798C224.001 381.215 227.575 384.789 231.993 384.789H279.999C284.417 384.789 288.003 381.215 288.003 376.798V208C288.003 203.581 284.417 200.008 279.999 200.008Z" fill="white"/>
<path d="M335.053 180.226C333.67 177.625 330.952 176.008 327.999 176.008H183.994C181.052 176.008 178.334 177.625 176.95 180.226C175.556 182.828 175.708 185.981 177.337 188.441L193.345 212.441C194.822 214.668 197.329 216.004 200.002 216.004H312.004C314.675 216.004 317.171 214.668 318.66 212.441L334.655 188.441C336.296 185.981 336.448 182.827 335.053 180.226Z" fill="#BBF7D0"/>
<path d="M255.994 320.008C251.576 320.008 248.002 316.422 248.002 312.004V264.004C248.002 259.586 251.576 256 255.994 256C260.411 256 263.997 259.586 263.997 264.004V312.004C263.997 316.422 260.411 320.008 255.994 320.008Z" fill="#F6BB42"/>
<path d="M399.297 436.715L361.82 353.851C361.024 352.093 359.616 350.675 357.859 349.878L259.334 304.738C257.084 303.706 254.483 303.765 252.291 304.913L170.693 347.582C169.451 348.226 168.408 349.187 167.658 350.37L113.248 435.707C111.677 438.168 111.583 441.297 112.978 443.852C114.385 446.418 117.08 448 119.998 448H392.007C394.726 448 397.258 446.629 398.722 444.344C400.199 442.058 400.41 439.187 399.297 436.715Z" fill="#CCD1D9"/>
<path d="M398.722 444.344C400.199 442.058 400.41 439.187 399.297 436.714L361.82 353.851C361.024 352.093 359.617 350.675 357.859 349.878L259.334 304.738C258.267 304.246 257.142 304.011 256.005 304.011L312.004 376.797L327.999 448H392.008C394.726 448 397.258 446.629 398.722 444.344Z" fill="#AAB2BC"/>
</g>
</g>
<defs>
<linearGradient id="paint0_linear_2127_3" x1="0" y1="0" x2="512" y2="512" gradientUnits="userSpaceOnUse">
<stop stop-color="#16A34A"/>
<stop offset="1" stop-color="#15803D"/>
</linearGradient>
<clipPath id="clip0_2127_3">
<rect width="512" height="512" rx="100" fill="white"/>
</clipPath>
<clipPath id="clip1_2127_3">
<rect width="384" height="384" fill="white" transform="translate(64 64)"/>
</clipPath>
</defs>
</svg>
