<svg width="48" height="48" viewBox="0 0 48 48" fill="none" xmlns="http://www.w3.org/2000/svg">
<mask id="mask0_2_20" style="mask-type:luminance" maskUnits="userSpaceOnUse" x="0" y="0" width="48" height="48">
<path d="M48 0H0V48H48V0Z" fill="white"/>
</mask>
<g mask="url(#mask0_2_20)">
<path d="M48 13.3007C48 12.803 48 12.3506 48 11.853C47.9548 10.8125 47.9095 9.72669 47.7286 8.68616C47.5476 7.64563 47.2309 6.65034 46.7333 5.7003C46.2356 4.75025 45.6475 3.89068 44.8784 3.16684C44.1093 2.39775 43.2498 1.80962 42.345 1.31198C41.3949 0.814336 40.3996 0.497663 39.3591 0.316702C38.3186 0.135741 37.278 0.0452576 36.1923 0.0452576C35.6946 0.0452576 35.2422 0.0452576 34.7446 0.0452576C34.1565 0.0452576 33.6136 0.0452576 33.0255 0.0452576H20.3129H15.065C14.4769 0.0452576 13.934 0.0452576 13.3459 0.0452576C12.8483 0.0452576 12.3959 0.0452576 11.8982 0.0452576C11.6268 0.0452576 11.3553 0.0452603 11.1291 0.0905006C10.36 0.135741 9.54572 0.180981 8.77663 0.316702C8.00755 0.452422 7.23846 0.678624 6.51461 0.950066C6.28841 1.04055 6.01697 1.17627 5.79077 1.26675C5.06692 1.62868 4.43355 2.08107 3.80019 2.57872C3.61923 2.75968 3.39304 2.94063 3.21207 3.12159C2.44299 3.89068 1.85486 4.75025 1.35722 5.65506C0.859572 6.6051 0.542889 7.60039 0.361929 8.64092C0.180968 9.68145 0.135725 10.722 0.0904846 11.8077C0.0904846 12.3054 0.0904846 12.7578 0.0904846 13.2554C0.0904846 13.8436 0.0904846 14.3864 0.0904846 14.9746V22.8011V32.935C0.0904846 33.5231 0.0904846 34.066 0.0904846 34.6541C0.0904846 35.1518 0.0904846 35.6042 0.0904846 36.1018C0.135725 37.1423 0.180968 38.2281 0.361929 39.2686C0.542889 40.3092 0.859572 41.3044 1.35722 42.2545C1.85486 43.2045 2.44299 44.0641 3.21207 44.788C3.98116 45.557 4.84072 46.1452 5.74553 46.6428C6.69558 47.1405 7.69086 47.4571 8.73139 47.6381C9.77192 47.8191 10.8124 47.9095 11.8982 47.9095C12.3959 47.9095 12.8483 47.9095 13.3459 47.9095C13.934 47.9095 14.4769 47.9095 15.065 47.9095H33.0255C33.6136 47.9095 34.1565 47.9095 34.7446 47.9095C35.2422 47.9095 35.6946 47.9095 36.1923 47.9095C37.2328 47.8643 38.3186 47.8191 39.3591 47.6381C40.3996 47.4571 41.3949 47.1405 42.345 46.6428C43.295 46.1452 44.1546 45.557 44.8784 44.788C45.6475 44.0189 46.2356 43.1593 46.7333 42.2545C47.2309 41.3044 47.5476 40.3092 47.7286 39.2686C47.9095 38.2281 48 37.1876 48 36.1018C48 35.6042 48 35.1518 48 34.6541C48 34.066 48 33.5231 48 32.935V14.9746C48 14.4317 48 13.8888 48 13.3007Z" fill="#24292F"/>
<path d="M12.7111 22.9278C12.7111 21.0458 13.0007 19.381 13.5797 17.9333C14.1829 16.4856 14.9912 15.2792 16.0046 14.314C17.0421 13.3248 18.2485 12.5768 19.6238 12.0701C21.0233 11.5634 22.5313 11.3101 24.1479 11.3101C25.7645 11.3101 27.2604 11.5634 28.6357 12.0701C30.0351 12.5768 31.2536 13.3248 32.2911 14.314C33.3286 15.2792 34.1369 16.4856 34.716 17.9333C35.3192 19.381 35.6208 21.0458 35.6208 22.9278C35.6208 25.2924 35.1865 27.3071 34.3179 28.9719C33.4493 30.6127 32.267 31.9035 30.7711 32.8445C31.133 33.0134 31.5552 33.1943 32.0378 33.3874C32.5445 33.5804 33.0632 33.7734 33.5941 33.9665C34.149 34.1595 34.716 34.3405 35.2951 34.5093C35.8742 34.7024 36.4171 34.8713 36.9237 35.016C36.9479 35.1608 36.9599 35.2815 36.9599 35.378C36.9599 35.4986 36.9599 35.6072 36.9599 35.7037C36.9599 37.079 36.598 38.0803 35.8742 38.7076C35.1744 39.335 34.2455 39.6486 33.0874 39.6486C31.9774 39.6486 30.8314 39.335 29.6491 38.7076C28.4668 38.1045 27.2604 37.2238 26.0299 36.0656L24.4374 34.5817H24.1479C22.5071 34.5817 20.9871 34.3284 19.5877 33.8217C18.1882 33.2909 16.9818 32.5308 15.9684 31.5416C14.955 30.5523 14.1588 29.3338 13.5797 27.8862C13.0007 26.4385 12.7111 24.7857 12.7111 22.9278ZM19.2257 22.9278C19.2257 25.1235 19.6721 26.7642 20.5648 27.85C21.4576 28.9357 22.6519 29.4786 24.1479 29.4786C25.668 29.4786 26.8743 28.9357 27.7671 27.85C28.6598 26.7642 29.1062 25.1235 29.1062 22.9278C29.1062 20.7563 28.6598 19.1276 27.7671 18.0419C26.8985 16.9561 25.7041 16.4132 24.1841 16.4132C22.6881 16.4132 21.4817 16.9561 20.5648 18.0419C19.6721 19.1035 19.2257 20.7322 19.2257 22.9278Z" fill="white"/>
<path d="M10.1791 14.9293C11.5533 14.9293 12.6673 13.8153 12.6673 12.4411C12.6673 11.0669 11.5533 9.95288 10.1791 9.95288C8.80485 9.95288 7.69086 11.0669 7.69086 12.4411C7.69086 13.8153 8.80485 14.9293 10.1791 14.9293Z" fill="white"/>
<path d="M10.1791 15.3817C8.55767 15.3817 7.23846 14.0625 7.23846 12.4411C7.23846 10.8197 8.55767 9.50047 10.1791 9.50047C11.8005 9.50047 13.1197 10.8197 13.1197 12.4411C13.1197 14.0625 11.8005 15.3817 10.1791 15.3817ZM10.1791 10.4053C9.05667 10.4053 8.14327 11.3187 8.14327 12.4411C8.14327 13.5635 9.05667 14.4769 10.1791 14.4769C11.3015 14.4769 12.2149 13.5635 12.2149 12.4411C12.2149 11.3187 11.3015 10.4053 10.1791 10.4053Z" fill="white"/>
<path d="M7.69087 12.6673C7.44069 12.6673 7.23846 12.4651 7.23846 12.2149C7.23846 8.72233 10.0796 5.88124 13.5721 5.88124C13.8223 5.88124 14.0245 6.08347 14.0245 6.33364C14.0245 6.58382 13.8223 6.78605 13.5721 6.78605C10.5786 6.78605 8.14327 9.22134 8.14327 12.2149C8.14327 12.4651 7.94105 12.6673 7.69087 12.6673Z" fill="white"/>
</g>
</svg>
