<svg width="512" height="512" viewBox="0 0 512 512" fill="none" xmlns="http://www.w3.org/2000/svg">
<rect width="512" height="512" rx="100" fill="url(#paint0_linear_2148_92)"/>
<g filter="url(#filter0_d_2148_92)">
<path fill-rule="evenodd" clip-rule="evenodd" d="M309.624 116.03C303.057 109.172 294.255 105.335 285.092 105.335C275.929 105.335 267.128 109.172 260.561 116.03L129.737 253.695C127.547 255.978 124.615 257.256 121.562 257.256C118.509 257.256 115.576 255.978 113.387 253.695C112.315 252.577 111.463 251.239 110.881 249.761C110.3 248.283 110 246.695 110 245.091C110 243.487 110.3 241.899 110.881 240.421C111.463 238.943 112.315 237.605 113.387 236.487L244.211 98.8216C255.155 87.3941 269.822 81 285.092 81C300.362 81 315.03 87.3941 325.973 98.8216C332.305 105.429 337.089 113.552 339.933 122.525C342.777 131.498 343.601 141.066 342.336 150.446C351.194 149.094 360.223 149.943 368.727 152.926C377.231 155.91 384.983 160.949 391.385 167.654L392.065 168.383C397.424 173.976 401.684 180.664 404.593 188.053C407.501 195.443 409 203.383 409 211.404C409 219.425 407.501 227.365 404.593 234.754C401.684 242.143 397.424 248.832 392.065 254.424L273.744 378.921C273.387 379.294 273.103 379.739 272.909 380.231C272.715 380.723 272.615 381.252 272.615 381.787C272.615 382.321 272.715 382.85 272.909 383.342C273.103 383.834 273.387 384.28 273.744 384.652L298.044 410.231C299.116 411.35 299.968 412.687 300.55 414.165C301.132 415.643 301.431 417.231 301.431 418.835C301.431 420.44 301.132 422.028 300.55 423.505C299.968 424.983 299.116 426.321 298.044 427.439C295.855 429.723 292.922 431 289.869 431C286.816 431 283.884 429.723 281.695 427.439L257.394 401.875C254.892 399.265 252.902 396.144 251.543 392.694C250.185 389.245 249.485 385.539 249.485 381.794C249.485 378.049 250.185 374.343 251.543 370.894C252.902 367.444 254.892 364.323 257.394 361.713L375.715 237.202C378.929 233.845 381.483 229.832 383.228 225.398C384.972 220.965 385.87 216.202 385.87 211.389C385.87 206.577 384.972 201.814 383.228 197.38C381.483 192.947 378.929 188.933 375.715 185.577L375.036 184.862C368.476 178.012 359.686 174.175 350.533 174.167C341.38 174.159 332.584 177.98 326.014 184.819L228.541 287.397L228.514 287.426L227.182 288.841C224.992 291.128 222.057 292.408 219.001 292.408C215.944 292.408 213.009 291.128 210.819 288.841C209.747 287.722 208.895 286.385 208.313 284.907C207.732 283.429 207.432 281.841 207.432 280.237C207.432 278.632 207.732 277.044 208.313 275.567C208.895 274.089 209.747 272.751 210.819 271.632L309.664 167.611C312.869 164.252 315.415 160.239 317.152 155.808C318.889 151.377 319.782 146.618 319.778 141.811C319.774 137.004 318.874 132.246 317.13 127.819C315.386 123.391 312.834 119.383 309.624 116.03Z" fill="white"/>
</g>
<g filter="url(#filter1_d_2148_92)">
<path fill-rule="evenodd" clip-rule="evenodd" d="M293.495 150.752C294.562 149.634 295.41 148.298 295.99 146.822C296.569 145.346 296.867 143.76 296.867 142.158C296.867 140.555 296.569 138.969 295.99 137.493C295.41 136.017 294.562 134.681 293.495 133.564C291.314 131.279 288.391 130 285.348 130C282.305 130 279.382 131.279 277.202 133.564L180.863 235.265C175.527 240.85 171.285 247.531 168.389 254.912C165.492 262.292 164 270.223 164 278.235C164 286.247 165.492 294.177 168.389 301.558C171.285 308.939 175.527 315.619 180.863 321.205C191.761 332.616 206.365 339 221.569 339C236.773 339 251.377 332.616 262.275 321.205L358.627 219.504C359.695 218.387 360.543 217.051 361.122 215.575C361.702 214.098 362 212.512 362 210.91C362 209.308 361.702 207.721 361.122 206.245C360.543 204.769 359.695 203.433 358.627 202.316C356.447 200.031 353.524 198.752 350.481 198.752C347.438 198.752 344.515 200.031 342.334 202.316L245.995 304.017C239.457 310.866 230.693 314.699 221.569 314.699C212.445 314.699 203.681 310.866 197.142 304.017C193.942 300.664 191.399 296.656 189.662 292.227C187.926 287.799 187.031 283.041 187.031 278.235C187.031 273.428 187.926 268.67 189.662 264.242C191.399 259.814 193.942 255.805 197.142 252.453L293.495 150.752Z" fill="white"/>
</g>
<g filter="url(#filter2_d_2148_92)">
<path d="M170 372.5C170 391.001 155.002 406 136.5 406C117.998 406 103 391.001 103 372.5C103 353.999 117.998 339 136.5 339C155.002 339 170 353.999 170 372.5Z" stroke="white" stroke-width="20" shape-rendering="crispEdges"/>
</g>
<defs>
<filter id="filter0_d_2148_92" x="110" y="81" width="299" height="361" filterUnits="userSpaceOnUse" color-interpolation-filters="sRGB">
<feFlood flood-opacity="0" result="BackgroundImageFix"/>
<feColorMatrix in="SourceAlpha" type="matrix" values="0 0 0 0 0 0 0 0 0 0 0 0 0 0 0 0 0 0 127 0" result="hardAlpha"/>
<feOffset dy="11"/>
<feComposite in2="hardAlpha" operator="out"/>
<feColorMatrix type="matrix" values="0 0 0 0 0.941176 0 0 0 0 0.968627 0 0 0 0 0.996078 0 0 0 0.25 0"/>
<feBlend mode="normal" in2="BackgroundImageFix" result="effect1_dropShadow_2148_92"/>
<feBlend mode="normal" in="SourceGraphic" in2="effect1_dropShadow_2148_92" result="shape"/>
</filter>
<filter id="filter1_d_2148_92" x="164" y="130" width="198" height="220" filterUnits="userSpaceOnUse" color-interpolation-filters="sRGB">
<feFlood flood-opacity="0" result="BackgroundImageFix"/>
<feColorMatrix in="SourceAlpha" type="matrix" values="0 0 0 0 0 0 0 0 0 0 0 0 0 0 0 0 0 0 127 0" result="hardAlpha"/>
<feOffset dy="11"/>
<feComposite in2="hardAlpha" operator="out"/>
<feColorMatrix type="matrix" values="0 0 0 0 0.941176 0 0 0 0 0.968627 0 0 0 0 0.996078 0 0 0 0.25 0"/>
<feBlend mode="normal" in2="BackgroundImageFix" result="effect1_dropShadow_2148_92"/>
<feBlend mode="normal" in="SourceGraphic" in2="effect1_dropShadow_2148_92" result="shape"/>
</filter>
<filter id="filter2_d_2148_92" x="93" y="329" width="91" height="95" filterUnits="userSpaceOnUse" color-interpolation-filters="sRGB">
<feFlood flood-opacity="0" result="BackgroundImageFix"/>
<feColorMatrix in="SourceAlpha" type="matrix" values="0 0 0 0 0 0 0 0 0 0 0 0 0 0 0 0 0 0 127 0" result="hardAlpha"/>
<feOffset dx="4" dy="8"/>
<feComposite in2="hardAlpha" operator="out"/>
<feColorMatrix type="matrix" values="0 0 0 0 0.941176 0 0 0 0 0.968627 0 0 0 0 0.996078 0 0 0 0.25 0"/>
<feBlend mode="normal" in2="BackgroundImageFix" result="effect1_dropShadow_2148_92"/>
<feBlend mode="normal" in="SourceGraphic" in2="effect1_dropShadow_2148_92" result="shape"/>
</filter>
<linearGradient id="paint0_linear_2148_92" x1="479" y1="27.5" x2="36" y2="474.5" gradientUnits="userSpaceOnUse">
<stop stop-color="#539AEC"/>
<stop offset="1" stop-color="#274FA6"/>
</linearGradient>
</defs>
</svg>
