<svg width="512" height="512" viewBox="0 0 512 512" fill="none" xmlns="http://www.w3.org/2000/svg">
<g clip-path="url(#clip0_2125_3)">
<rect width="512" height="512" rx="100" fill="url(#paint0_linear_2125_3)"/>
<path d="M254.84 110.264L216.28 200.024H177.72C171.32 200.024 165.08 200.504 159 201.784L175 163.384L175.64 161.944L176.6 159.384C177.08 158.264 177.4 157.304 177.88 156.504C196.44 113.464 217.24 100.024 254.84 110.264Z" fill="#D4E8D8" fill-opacity="0.5"/>
<path opacity="0.5" d="M363.51 204.307L363.19 204.147C353.59 201.427 343.83 199.988 333.91 199.988H233.75L269.75 116.307L270.23 115.188C272.47 115.988 274.87 117.107 277.27 117.907L312.63 132.787C332.31 140.947 346.07 149.427 354.55 159.667C355.99 161.587 357.27 163.348 358.55 165.428C359.99 167.668 361.11 169.907 361.75 172.307C362.39 173.747 362.87 175.028 363.19 176.468C365.59 184.628 365.75 193.907 363.51 204.307Z" fill="#D4E8D8"/>
<path d="M264.312 346.53H268.312C273.112 346.53 277.112 342.21 277.112 336.93C277.112 330.21 275.192 329.25 271.032 327.65L264.312 325.25V346.53Z" fill="#D4E8D8"/>
<path opacity="0.2" d="M356.537 251.902C349.344 250.016 341.832 249 334 249H178C167.131 249 156.902 250.886 147.311 254.659C119.5 265.542 100 290.647 100 319.814V348.11C100 351.593 100.32 354.931 100.799 358.413C104.316 404.558 131.488 429.227 182.315 432.274C185.992 432.71 189.668 433 193.664 433H318.336C377.475 433 408.643 407.461 411.68 356.672C411.84 353.915 412 351.013 412 348.11V319.814C412 287.744 388.504 260.754 356.537 251.902Z" fill="#D4E8D8"/>
<g filter="url(#filter0_d_2125_3)">
<path d="M356.613 216.325C349.413 214.245 341.893 213.125 334.053 213.125H177.893C167.013 213.125 156.772 215.205 147.172 219.365C119.332 231.365 99.8125 259.045 99.8125 291.205V322.405C99.8125 326.245 100.132 329.925 100.612 333.765C104.132 384.645 131.332 411.845 182.212 415.205C185.892 415.685 189.572 416.005 193.572 416.005H318.373C377.573 416.005 408.773 387.845 411.813 331.845C411.973 328.805 412.133 325.605 412.133 322.405V291.205C412.133 255.845 388.613 226.085 356.613 216.325ZM276.453 312.005C283.813 314.565 293.733 320.005 293.733 336.965C293.733 351.525 282.373 363.205 268.293 363.205H264.293V366.725C264.293 371.365 260.613 375.045 255.973 375.045C251.333 375.045 247.653 371.365 247.653 366.725V363.205H246.213C230.853 363.205 218.212 350.245 218.212 334.245C218.212 329.605 221.893 325.925 226.533 325.925C231.173 325.925 234.853 329.605 234.853 334.245C234.853 340.965 239.973 346.565 246.213 346.565H247.653V319.525L235.493 315.205C228.133 312.645 218.212 307.205 218.212 290.245C218.212 275.685 229.573 264.005 243.653 264.005H247.653V260.485C247.653 255.845 251.333 252.165 255.973 252.165C260.613 252.165 264.293 255.845 264.293 260.485V264.005H265.733C281.093 264.005 293.733 276.965 293.733 292.965C293.733 297.605 290.053 301.285 285.413 301.285C280.773 301.285 277.093 297.605 277.093 292.965C277.093 286.245 271.973 280.645 265.733 280.645H264.293V307.685L276.453 312.005Z" fill="#D4E8D8"/>
</g>
<path d="M234.875 290.226C234.875 296.946 236.795 297.906 240.955 299.506L247.675 301.906V280.626H243.675C238.715 280.626 234.875 284.946 234.875 290.226Z" fill="#D4E8D8"/>
</g>
<defs>
<filter id="filter0_d_2125_3" x="95.8125" y="213.125" width="320.32" height="210.88" filterUnits="userSpaceOnUse" color-interpolation-filters="sRGB">
<feFlood flood-opacity="0" result="BackgroundImageFix"/>
<feColorMatrix in="SourceAlpha" type="matrix" values="0 0 0 0 0 0 0 0 0 0 0 0 0 0 0 0 0 0 127 0" result="hardAlpha"/>
<feOffset dy="4"/>
<feGaussianBlur stdDeviation="2"/>
<feComposite in2="hardAlpha" operator="out"/>
<feColorMatrix type="matrix" values="0 0 0 0 0 0 0 0 0 0 0 0 0 0 0 0 0 0 0.25 0"/>
<feBlend mode="soft-light" in2="BackgroundImageFix" result="effect1_dropShadow_2125_3"/>
<feBlend mode="normal" in="SourceGraphic" in2="effect1_dropShadow_2125_3" result="shape"/>
</filter>
<linearGradient id="paint0_linear_2125_3" x1="0" y1="0" x2="512" y2="512" gradientUnits="userSpaceOnUse">
<stop stop-color="#40916C"/>
<stop offset="1" stop-color="#2D6A4F"/>
</linearGradient>
<clipPath id="clip0_2125_3">
<rect width="512" height="512" rx="100" fill="white"/>
</clipPath>
</defs>
</svg>
